<svg width="1548.9999999999998" height="207" xmlns="http://www.w3.org/2000/svg">
 <style type="text/css">.st0{fill:#29ABE2;}
	.st1{fill:none;}
	.st2{fill:#FF0000;}</style>

 <g>
  <title>background</title>
  <rect fill="none" id="canvas_background" height="209" width="1551" y="-1" x="-1"/>
 </g>
 <g>
  <title>Layer 1</title>
  <g id="svg_1">
   <path id="svg_11" d="m827.6,1166.7c-17.7,0 -35.4,0.1 -53.1,-0.1c-5.1,0 -9.6,1.1 -9.8,6.7c-0.3,6.3 4.7,7.7 9.9,7.8c9,0.1 18,0 27,0c0,0 0,0 0,0.1c8.7,0 17.4,0 26.1,0c5.1,0 10.2,-1.1 10.2,-7.4c0,-6.7 -5.1,-7.1 -10.3,-7.1z" class="st1"/>
   <path id="svg_12" d="m1019.7,1166.6c-5.1,0 -9.6,1.1 -9.8,6.7c-0.3,6.3 4.7,7.7 9.9,7.8c9,0.1 18,0 27,0c0,0 0,0 0,0.1c8.7,0 17.4,0 26.1,0c5.1,0 10.2,-1.1 10.2,-7.4c0,-6.6 -5.1,-7 -10.3,-7c-17.7,-0.1 -35.4,0 -53.1,-0.2z" class="st1"/>
   <g id="svg_2">
    <path id="svg_3" d="m0.09643,0.179001l45.4,0l0,165l102.8,0l0,41.2l-148.2,0l0,-206.2z" class="st0"/>
    <path id="svg_4" d="m182.49643,0.179001l155.5,0l0,40.4l-110.5,0l0,41.8l97.2,0l0,40.4l-97.2,0l0,43.3l111.9,0l0,40.4l-157,0l0,-206.3l0.1,0z" class="st0"/>
    <path id="svg_5" d="m450.49643,-1.320999l41.8,0l88.4,207.7l-47.4,0l-18.9,-46.3l-87.2,0l-18.9,46.3l-46.3,0l88.5,-207.7zm47.8,121.4l-27.4,-66.9l-27.4,66.9l54.8,0z" class="st0"/>
    <path id="svg_6" d="m612.59643,0.179001l41.8,0l96.6,127l0,-127l44.8,0l0,206.2l-38.6,0l-99.9,-131.1l0,131.1l-44.8,0l0,-206.2l0.1,0z" class="st0"/>
    <path id="svg_7" d="m893.29643,42.079001l-62.7,0l0,-41.8l170.9,0l0,41.8l-62.7,0l0,164.4l-45.4,0l0,-164.4l-0.1,0z"/>
    <path id="svg_8" d="m1038.19643,0.179001l45.4,0l0,206.2l-45.4,0l0,-206.2z"/>
    <path id="svg_9" d="m1135.19643,0.179001l48.9,0l54.2,87.2l54.2,-87.2l48.9,0l0,206.2l-45.1,0l0,-134.6l-58,88.1l-1.2,0l-57.4,-87.2l0,133.7l-44.5,0l0,-206.2z"/>
    <path id="svg_10" d="m1390.89643,0.179001l155.5,0l0,40.4l-110.5,0l0,41.8l97.2,0l0,40.4l-97.2,0l0,43.3l111.9,0l0,40.4l-157,0l0,-206.3l0.1,0z"/>
   </g>
  </g>
 </g>
</svg>