<?xml version="1.0" encoding="utf-8"?>
<!-- Generator: Adobe Illustrator 21.0.0, SVG Export Plug-In . SVG Version: 6.00 Build 0)  -->
<svg version="1.1" id="Layer_1" xmlns="http://www.w3.org/2000/svg" xmlns:xlink="http://www.w3.org/1999/xlink" x="0px" y="0px"
	 viewBox="0 0 2000 2000" style="enable-background:new 0 0 2000 2000;" xml:space="preserve">
<style type="text/css">
	.st0{fill:#29ABE2;}
	.st1{fill:none;}
	.st2{fill:#FF0000;}
</style>
<g>
	<g>
		<path class="st0" d="M226.1,1297.7h45.4v165h102.8v41.2H226.1V1297.7z"/>
		<path class="st0" d="M408.5,1297.7H564v40.4H453.5v41.8h97.2v40.4h-97.2v43.3h111.9v40.4h-157V1297.7z"/>
		<path class="st0" d="M676.5,1296.2h41.8l88.4,207.7h-47.4l-18.9-46.3h-87.2l-18.9,46.3h-46.3L676.5,1296.2z M724.3,1417.6
			l-27.4-66.9l-27.4,66.9H724.3z"/>
		<path class="st0" d="M838.6,1297.7h41.8l96.6,127v-127h44.8v206.2h-38.6l-99.9-131.1v131.1h-44.8V1297.7z"/>
		<path d="M1119.3,1339.6h-62.7v-41.8h170.9v41.8h-62.7v164.4h-45.4V1339.6z"/>
		<path d="M1264.2,1297.7h45.4v206.2h-45.4V1297.7z"/>
		<path d="M1361.2,1297.7h48.9l54.2,87.2l54.2-87.2h48.9v206.2h-45.1v-134.6l-58,88.1h-1.2l-57.4-87.2v133.7h-44.5V1297.7z"/>
		<path d="M1616.9,1297.7h155.5v40.4h-110.5v41.8h97.2v40.4h-97.2v43.3h111.9v40.4h-157V1297.7z"/>
	</g>
	<path class="st1" d="M828.6,1166.7c-17.7,0-35.4,0.1-53.1-0.1c-5.1,0-9.6,1.1-9.8,6.7c-0.3,6.3,4.7,7.7,9.9,7.8c9,0.1,18,0,27,0
		c0,0,0,0,0,0.1c8.7,0,17.4,0,26.1,0c5.1,0,10.2-1.1,10.2-7.4C838.9,1167.1,833.8,1166.7,828.6,1166.7z"/>
	<path class="st1" d="M1020.7,1166.6c-5.1,0-9.6,1.1-9.8,6.7c-0.3,6.3,4.7,7.7,9.9,7.8c9,0.1,18,0,27,0c0,0,0,0,0,0.1
		c8.7,0,17.4,0,26.1,0c5.1,0,10.2-1.1,10.2-7.4c0-6.6-5.1-7-10.3-7C1056.1,1166.7,1038.4,1166.8,1020.7,1166.6z"/>
	<g>
		<g>
			<path d="M921.3,693.9c-83.6,0-151.4,67.8-151.4,151.4c0,83.6,67.8,151.4,151.4,151.4s151.4-67.8,151.4-151.4
				C1072.8,761.7,1005,693.9,921.3,693.9z M921.3,978.7c-73.7,0-133.4-59.7-133.4-133.4s59.7-133.4,133.4-133.4
				s133.4,59.7,133.4,133.4S995,978.7,921.3,978.7z"/>
			<g>
				<polygon class="st2" points="917.9,872.9 1033.9,818.1 917.9,869.3 				"/>
				<polygon points="981.7,962.2 919.9,869.6 919.9,722.1 908.4,722.1 908.4,881.2 				"/>
			</g>
		</g>
		<path class="st0" d="M894.1,577.7c9,0.1,18,0,27,0c0,0,0,0,0,0.1c8.7,0,17.4,0,26.1,0c5.1,0,10.2-1.1,10.2-7.4c0-0.1,0-0.2,0-0.3
			c-0.2,6.1-5.1,7.1-10.2,7.2c-8.7,0.1-17.4,0-26.1,0c0,0,0,0,0-0.1c-9,0-18,0.1-27,0c-5.1-0.1-9.9-1.5-9.9-7.4c0,0.1,0,0.1,0,0.2
			C884,576.2,888.9,577.7,894.1,577.7z"/>
		<path class="st1" d="M894.1,577.7c9,0.1,18,0,27,0c0,0,0,0,0,0.1c8.7,0,17.4,0,26.1,0c5.1,0,10.2-1.1,10.2-7.4c0-0.1,0-0.2,0-0.3
			c-0.2,6.1-5.1,7.1-10.2,7.2c-8.7,0.1-17.4,0-26.1,0c0,0,0,0,0-0.1c-9,0-18,0.1-27,0c-5.1-0.1-9.9-1.5-9.9-7.4c0,0.1,0,0.1,0,0.2
			C884,576.2,888.9,577.7,894.1,577.7z"/>
		<path class="st1" d="M917.9,1144.5c-16.1,0.2-28.8,13.2-28.8,29.4c0,16.5,13.3,29.6,29.7,29.5c16-0.1,28.8-13.3,28.8-29.4
			C947.7,1157.3,934.5,1144.2,917.9,1144.5z"/>
		<path class="st1" d="M894.1,563.3c17.7,0.2,35.4,0.1,53.1,0.1c5.1,0,10.1,0.4,10.3,6.7c0-0.1,0-0.2,0-0.3c0-6.6-5.1-7-10.3-7
			c-17.7,0-35.4,0.1-53.1-0.1c-5.1,0-9.6,1.1-9.8,6.7c0,0.1,0,0.3,0,0.4C884.6,564.4,889.1,563.2,894.1,563.3z"/>
		<path class="st0" d="M1010.1,1119.3c-83.9,0-167.7,0-251.9,0c0-165,0-330,0-496.1c108.4,0,216.5,0,325,0c0,105.4,0,210.6,0,315.9
			c11.4-7.4,22.4-6.6,37.3,1.5c0.3-0.3,0.6-0.6,0.9-0.9c0-24.2,0-48.4,0-72.5c0-103.9,0.1-207.8,0-311.7c0-33.1-25.5-59.2-58.5-59.3
			c-94.9-0.2-189.8,0-284.7,0.1c-4.7,0-9.6,0.6-14.2,1.8c-26.1,6.9-43.8,29.6-43.8,56.9c-0.2,88.9-0.1,177.8-0.1,266.7
			c0,118.9-0.2,237.9,0.3,356.8c0,10.1,2.9,21.1,7.6,30c10.4,19.8,27.9,30.1,50.6,30.2c93.1,0.2,186.2,0.1,279.3,0.2
			c39,0,63.5-24.5,63.6-63.4c0-2.5,0-4.9,0-7.4c-24.9-4-47.4-13.2-68.4-22.5C1038.9,1139.3,1023.7,1131.5,1010.1,1119.3z
			 M984.9,554.1c8.9-0.1,16,6.9,16,15.9c0,8.7-6.9,15.8-15.5,15.9c-8.9,0.1-16-7-16-15.9C969.3,561.3,976.2,554.3,984.9,554.1z
			 M884.3,569.4c0.3-5.6,4.8-6.7,9.8-6.7c17.7,0.2,35.4,0.1,53.1,0.1c5.1,0,10.3,0.4,10.3,7c0,0.1,0,0.2,0,0.3c0,0.1,0,0.2,0,0.3
			c0,6.3-5.1,7.4-10.2,7.4c-8.7,0.1-17.4,0-26.1,0c0,0,0,0,0-0.1c-9,0-18,0.1-27,0c-5.2-0.1-10.2-1.5-9.9-7.8c0-0.1,0-0.1,0-0.2
			C884.3,569.7,884.2,569.6,884.3,569.4z M828.7,1181.1c-8.7,0.1-17.4,0-26.1,0c0,0,0,0,0-0.1c-9,0-18,0.1-27,0
			c-5.2-0.1-10.2-1.5-9.9-7.8c0.3-5.6,4.8-6.7,9.8-6.7c17.7,0.2,35.4,0.1,53.1,0.1c5.1,0,10.3,0.4,10.3,7
			C838.9,1180.1,833.8,1181.1,828.7,1181.1z M918.9,1203.3c-16.5,0.1-29.7-13-29.7-29.5c0-16.2,12.7-29.2,28.8-29.4
			c16.5-0.2,29.7,12.9,29.7,29.4C947.7,1190.1,934.8,1203.2,918.9,1203.3z M1084,1173.7c0,6.3-5.1,7.4-10.2,7.4
			c-8.7,0.1-17.4,0-26.1,0c0,0,0,0,0-0.1c-9,0-18,0.1-27,0c-5.2-0.1-10.2-1.5-9.9-7.8c0.3-5.6,4.8-6.7,9.8-6.7
			c17.7,0.2,35.4,0.1,53.1,0.1C1078.9,1166.7,1084.1,1167.1,1084,1173.7z"/>
		<path class="st0" d="M1069.4,963.5c19.8-25,29.6-27.3,53-12.8c1.7-2.1,3.5-4.7,5.7-6.9c12-11.6,26.4-12.7,39.4-2.5
			c4,3.2,7.3,3.4,12,2.3c22.9-5.3,40.7,1.1,52.1,22.7c13.8,26,28.7,51.4,36.1,80.1c3.8,14.7,5.4,30.1,7.8,45.2
			c1.5,9.5,2.9,19,4.5,29.6c-39.3,19.6-78.9,39.4-118.7,59.3c-3.5-11.8-10.3-17.5-22.8-18.2c-29.4-1.7-55.8-12-82.6-23.7
			c-23.3-10.3-43.2-22.7-57.6-44c-4.1-6.1-10.7-10.4-16.1-15.6c-7-6.8-11-15.1-11-25c0-9.3,6-15.2,15.1-13.2
			c6.9,1.5,13.9,4.5,19.8,8.4c15.8,10.5,30.8,22.2,46.6,32.7c3.9,2.6,9.4,2.6,14.2,3.8c0.1-5.2,1.7-11,0-15.6
			c-4.5-12.1-9.9-24-15.8-35.6c-26.4-51-53.4-101.8-79.5-153c-4.6-9-7.1-19.6-8.4-29.7c-1.3-10.4,5.3-14.8,15.4-11.8
			c11.4,3.4,19,11.6,25.1,21.2c17.7,27.6,35,55.5,52.6,83.1C1060.3,950.6,1064.7,956.6,1069.4,963.5z"/>
	</g>
</g>
</svg>
